<?xml version="1.0"?>
<svg version="1.1" xmlns="http://www.w3.org/2000/svg" width="400" height="200" style=""><path fill="#795744" d="M57.24,127.92q7.76,0.24,8.2,0.24l0.52,0q1.92-0.16,1.92,0.56q0,1.12-3.12,1.12l-6.8-0.16q-2.08,0.16-2.48,0.4q-3.36,4.16-9.04,12.04t-5.68,9.4q0,0.64,1.44-0.32q0.88,0,0.88,0.24q0,0.4-1.76,1.2l-2.24,1.2q-1.52,1.28-3.48,1.28t-1.8-0.96q0.08-1.92,5.68-9.72t11.6-14.84q-5.76,1.04-8.8,1.04q-0.32-0.08-0.32-0.52t0.96-1.24t2.04-0.8t3.48-0.08l4.08,0q2.72-3.68,12.08-16.96q3.84-5.52,3.84-9.12q0-5.6-8.32-5.6q-6.48,0-15.24,3.6t-16.12,9.84q-5.2,4.32-8.24,9.36t-3.04,8.96q0,6.32,7.52,6.32q0.64,0,1.36-0.08q4.88-0.4,9.24-5.56t4.36-8.68q0-0.32-0.08-0.72q2.08,0.4,2.08,2.48q0,3.44-4.48,8.08q-6.08,6.32-14.08,6.32q-4.4,0-6.88-2.32t-2.48-6.32q0-9.44,11.52-19.04q8.32-6.8,17.68-10.28t16.28-3.48t10.32,2t3.4,5.56t-3.12,8.04q-1.84,2.96-12.88,17.52z M91.4936,148.48q-0.4,0.08-1.72,0.08t-2.64-1.04t-1.32-2.68t0.6-3.64t0.84-3.04q-9.2,10.72-14.4,10.72q-3.28,0-3.6-4.08l0-0.56q0-3.44,4.16-9.28q-2.32,2.08-4.72,4.8q-0.32,0.32-0.8,0.32q-0.32,0-0.32-0.4t0.72-1.36l11.04-12.96q2.08-2.4,4.24-2.4t2.16,1.44q0,0.56-0.48,1.04q-3.2,2.96-8.04,9.84t-4.84,10.16q0,1.44,0.96,1.44q3.36,0,9.76-6.64q2.24-2.24,8.32-9.88t8-7.64q2.88,0,2.88,2.24q0,0.8-3.36,4.64q-4.56,5.52-6.96,9t-2.4,5.64t1.2,2.16q0.56,0,1.28-0.32q5.52-2.4,13.2-11.2q0.48-0.56,0.96-0.56t0.48,0.52t-0.56,1.16q-3.44,4-8.08,8.04t-6.56,4.44z M122.9472,148.4q-6,0-6-6.64q0-3.36,1.76-7.36t3.84-6.72q-0.4,0.08-1.04,0.08q-1.92,0-3.2-2.72l-5.92,7.68q-4.96,6.16-5.76,6.16q-0.4,0-0.4-0.32q0-0.8,1.36-2.32q6.96-8.08,9.84-13.68q1.84-6.96,4.64-6.96q1.84,0,1.84,1.6t-2,4.08l-1.92,2.56q0,1.68,2.48,1.68q1.44,0,3.2-1.04l2.08-1.28q0.16-0.08,0.8-0.08t1.36,0.8t0.48,1.44l-5.52,6.96q-5.12,6.56-5.12,10.36t3.52,3.8q3.68,0,9.04-3.92q3.2-2.32,5.84-5.2q2.48-2.88,2.72-2.88q0.56,0,0.56,0.6t-0.72,1.4l-2.56,2.88q-2.16,2.24-4.8,4.32q-6.32,4.72-10.4,4.72z M154.5608,122.72q2.16,0,2.16,1.68q0,0.48-0.24,0.96q-7.2,10-8.64,15.12q18.64-18.64,22.64-18.64q0.4-0.08,0.72-0.08q2.24,0,2.24,2q0,0.4-0.16,0.8t-3.2,4.32q-3.52,4.16-5.96,8t-2.44,6.4t1.12,2.56q3.52,0,12.24-9.68q0.16-0.16,0.56-0.72q1.2-1.44,1.44-1.44t0.24,0.8t-1.12,2.08q-9.92,11.28-14.08,11.28q-3.92,0-3.92-4.32t3.2-9.92l5.12-8.32q-5.44,4-9.68,8.76t-7.72,9.24t-4.04,4.48q-1.2,0-1.88-1t-0.68-2.48t1.04-3.96t2.64-6l-4.8,5.04q-1.76,1.76-2.2,1.76t-0.44-0.52t0.64-1.16q2.96-2.96,5.12-5.68q2.08-2.72,8.56-10.4q0.72-0.96,1.52-0.96z M197.0944,116.12q1.08,0.76,1.08,1.8t-1,1.8t-2.2,0.76t-2.2-0.88t-1-2q0-2.24,3.04-2.24q1.2,0,2.28,0.76z M180.3344,148.88q-4.08,0-4.08-5.28q0-4.32,4.72-11.96t7.6-7.72q0.8,0,1.8,0.64t1,1.28q-0.4,0.56-0.96,1.24t-1.2,1.48t-1.76,2.28t-2.16,2.84q-6,7.76-6,10.68t2,2.92q1.68,0,4.56-1.84q6.72-4.16,10.64-9.12q1.44-1.84,1.96-1.84t0.52,0.64t-1.84,2.56t-2.92,3.04t-1.48,1.48t-1.48,1.36t-1.64,1.4t-1.6,1.2t-1.84,1.16t-1.84,0.84q-1.68,0.72-4,0.72z M262.348,113.76q-2.96,1.2-5.08,1.2t-2.12-0.88q0-0.56,2.36-0.64t3.4-0.56q3.04-1.6,3.04-4.72q0-1.6-0.88-3.36q-2.56-4.56-12.4-4.56q-5.68,0-11.36,1.72t-9.52,5.28t-3.84,6.6q0,4.64,9.2,6.8l9.44,1.76q5.68,1.04,8.48,2.88q3.68,2.24,3.68,6.4q0,1.68-0.56,3.6q-2.56,8.64-13.2,13.2q-8.88,3.92-20.96,3.92q-3.44,0-6-0.32q2.56,1.44,6.72,2.48q0.32,0.08,0.32,0.32q0,0.72-1.68,0.72q-3.28,0-8.16-3.92q-6.64-1.04-9.92-3.68q-2.08-1.68-3.84-4.96t-1.76-5.92t1.04-4.4q2.4-4.24,6.08-4.24q2.8,0,3.28,4.72q1.12,9.12,1.52,10.4q1.2,3.92,4.08,6.64q3.36,0.72,7.28,0.72q8.64,0,16.96-3.44t12-9.76q1.52-2.48,1.52-4.4q0-3.76-6.64-5.84l-14.08-3.2q-4.32-1.04-6.92-3.44t-2.6-5.52q0-4.8,6-9.6q4.56-3.68,11.16-5.72t12.96-2.04t10.52,1.84q5.36,2.48,5.36,7.24t-4.88,6.68z M210.828,149.44q-4.64-5.12-5.92-14q-0.72-5.04-1.36-5.04t-1.2,0.36t-1.12,1.56t-0.56,3.12q0,6.16,4.32,10.56q2.16,2.24,5.84,3.44z M281.4016,147.68q-4.72,0-4.72-5.52q0-3.12,2.2-6.92t5.4-8.92q-10.24,5.12-18.56,15.12q-4.64,6.96-5.44,6.96q-2.32,0-2.32-1.36q0-0.72,0.96-2.56q7.76-13.84,11.76-20.24q9.52-15.28,13.44-16.56q0.16-0.08,0.32-0.08q1.04,0,1.44,1.68q-0.24,1.68-8.32,12.16q-8.4,10.64-9.52,13.92q2.96-2.16,10.32-7.28q7.92-5.52,10.48-5.52t2.56,2q0,0.32-0.04,0.44t-5.56,7.56t-5.52,10.96q0,1.84,1.36,1.84q4.32-0.16,12.96-10.4q0.72-0.72,1.08-0.72t0.36,0.48q0,1.6-7.92,8.64q-4.96,4.32-6.72,4.32z M316.9352,131.04q0,2.8-5.36,9.36q-6.32,7.76-10.8,7.76l-1.28,0q-2.08,0-3.28-2.16q-0.96-1.52-0.96-3.36q0-4.8,7-13.48t11.32-8.68q4.08,0,4.08,4.32q0,1.12-0.4,2.88q0.08,0.24,1.52,0.24t4.4-1.52q-0.08,1.36-6.32,3.92q0.08,0.32,0.08,0.72z M311.7352,126.88q-2.72,0-7.72,6.4t-5,9.44t1.92,3.04q3.44,0,8.72-6.24t5.28-8.96q-1.28-0.72-3.2-3.68z M352.2288,129.92q0,6.48-7.4,12.28t-12.84,5.8q-3.6,0-5.24-0.48t-3.64-2.88q-1.36,1.12-3.68,5.72t-2.32,7.88q0,1.52,1.52,4q0.16,0.4-0.24,0.68t-0.6,0.28t-0.36-0.08q-3.36-1.84-3.36-7.16t8.84-18.4t12.2-14.2q0.8-0.16,1.04-0.16q1.36,0,1.36,2.96q0.8-0.8,3.28-1.52q3.04-0.8,4.32-0.8q2.88,0,5,1.64t2.12,4.44z M348.1488,129.12q0-3.04-3.6-3.04t-6.56,1.52q-1.36,0.64-7.52,7.04t-6.16,8.24q0,1.44,2.2,2.16t4.44,0.72q4.4,0,10.8-5t6.4-11.64z"/><path fill="#" d=""/></svg>
